<svg xmlns="http://www.w3.org/2000/svg" version="1.1" viewBox="-5.0 -10.0 110.0 135.0">
 <path d="m90.625 50c-0.023438 1.7148-1.4102 3.1016-3.125 3.125h-54.168c-1.7227 0-3.125-1.3984-3.125-3.125s1.4023-3.125 3.125-3.125h54.168c1.7148 0.023438 3.1016 1.4102 3.125 3.125zm-69.793-3.125h-8.332c-1.7266 0-3.125 1.3984-3.125 3.125s1.3984 3.125 3.125 3.125h8.332c1.7266 0 3.125-1.3984 3.125-3.125s-1.3984-3.125-3.125-3.125zm66.668 20.832h-54.168c-1.7227 0-3.125 1.4023-3.125 3.125 0 1.7266 1.4023 3.125 3.125 3.125h54.168c1.7266 0 3.125-1.3984 3.125-3.125 0-1.7227-1.3984-3.125-3.125-3.125zm-66.668 0h-8.332c-1.7266 0-3.125 1.4023-3.125 3.125 0 1.7266 1.3984 3.125 3.125 3.125h8.332c1.7266 0 3.125-1.3984 3.125-3.125 0-1.7227-1.3984-3.125-3.125-3.125zm12.5-35.418 54.168 0.003907c1.7266 0 3.125-1.4023 3.125-3.125 0-1.7266-1.3984-3.125-3.125-3.125h-54.168c-1.7227 0-3.125 1.3984-3.125 3.125 0 1.7227 1.4023 3.125 3.125 3.125zm-12.5-6.2461h-8.332c-1.7266 0-3.125 1.3984-3.125 3.125 0 1.7227 1.3984 3.125 3.125 3.125h8.332c1.7266 0 3.125-1.4023 3.125-3.125 0-1.7266-1.3984-3.125-3.125-3.125z"/>
<text x="0.0" y="117.5" font-size="5.0" font-weight="bold" font-family="Arbeit Regular, Helvetica, Arial-Unicode, Arial, Sans-serif" fill="#000000">Created by Dwi ridwanto</text><text x="0.0" y="122.5" font-size="5.0" font-weight="bold" font-family="Arbeit Regular, Helvetica, Arial-Unicode, Arial, Sans-serif" fill="#000000">from Noun Project</text></svg>