<svg xmlns="http://www.w3.org/2000/svg" xmlns:xlink="http://www.w3.org/1999/xlink" version="1.1" x="0px" y="0px" viewBox="0 0 16 20" style="enable-background:new 0 0 16 16;" xml:space="preserve"><g><path d="M5.5,0h-4C0.673,0,0,0.673,0,1.5v4C0,6.327,0.673,7,1.5,7h4C6.327,7,7,6.327,7,5.5v-4C7,0.673,6.327,0,5.5,0z M6,5.5   C6,5.776,5.776,6,5.5,6h-4C1.224,6,1,5.776,1,5.5v-4C1,1.224,1.224,1,1.5,1h4C5.776,1,6,1.224,6,1.5V5.5z"/><path d="M13.5,0h-4C8.673,0,8,0.673,8,1.5v4C8,6.327,8.673,7,9.5,7h4C14.327,7,15,6.327,15,5.5v-4C15,0.673,14.327,0,13.5,0z    M14,5.5C14,5.776,13.775,6,13.5,6h-4C9.225,6,9,5.776,9,5.5v-4C9,1.224,9.225,1,9.5,1h4C13.775,1,14,1.224,14,1.5V5.5z"/><path d="M5.5,8h-4C0.673,8,0,8.673,0,9.5v4C0,14.327,0.673,15,1.5,15h4C6.327,15,7,14.327,7,13.5v-4C7,8.673,6.327,8,5.5,8z    M6,13.5C6,13.775,5.776,14,5.5,14h-4C1.224,14,1,13.775,1,13.5v-4C1,9.225,1.224,9,1.5,9h4C5.776,9,6,9.225,6,9.5V13.5z"/><path d="M13.5,8h-4C8.673,8,8,8.673,8,9.5v4C8,14.327,8.673,15,9.5,15h4c0.827,0,1.5-0.673,1.5-1.5v-4C15,8.673,14.327,8,13.5,8z    M14,13.5c0,0.275-0.225,0.5-0.5,0.5h-4C9.225,14,9,13.775,9,13.5v-4C9,9.225,9.225,9,9.5,9h4C13.775,9,14,9.225,14,9.5V13.5z"/></g><text x="0" y="31" fill="#000000" font-size="5px" font-weight="bold" font-family="'Helvetica Neue', Helvetica, Arial-Unicode, Arial, Sans-serif">Created by Rflor</text><text x="0" y="36" fill="#000000" font-size="5px" font-weight="bold" font-family="'Helvetica Neue', Helvetica, Arial-Unicode, Arial, Sans-serif">from the Noun Project</text></svg>